<?xml version="1.0" encoding="UTF-8"?>
<svg xmlns="http://www.w3.org/2000/svg" style="stroke-dasharray:none; shape-rendering:auto; font-family:'Arial'; text-rendering:auto; fill-opacity:1; color-interpolation:auto; color-rendering:auto; font-size:12; fill:black; stroke:black; image-rendering:auto; stroke-miterlimit:10; stroke-linecap:square; stroke-linejoin:miter; font-style:normal; stroke-width:1; stroke-dashoffset:0; font-weight:normal; stroke-opacity:1;" contentScriptType="text/ecmascript" preserveAspectRatio="xMidYMid meet" zoomAndPan="magnify" version="1.0" contentStyleType="text/css" xml:xlink="http://www.w3.org/1999/xlink" width="1011" height="872"><rect x="0" y="0" width="1011" height="150" ry="0" rx="0" style="stroke:#000000; fill:#9FC1C6" /><g componentSequence="1"><text x="-75" y="7" transform="rotate(270)" text-anchor="middle" style="font-weight:bold;font-size:10px;stroke:none; fill:#434343"><tspan dy="14" x="-75">Solicitante</tspan></text></g><rect x="0" y="722" width="1011" height="150" ry="0" rx="0" style="stroke:#000000; fill:#FF9999" /><g componentSequence="4"><text x="-797" y="7" transform="rotate(270)" text-anchor="middle" style="font-weight:bold;font-size:10px;stroke:none; fill:#434343"><tspan dy="14" x="-797">Diretoria</tspan></text></g><rect x="0" y="574" width="1011" height="150" ry="0" rx="0" style="stroke:#000000; fill:#3BBEFF" /><g componentSequence="3"><text x="-649" y="7" transform="rotate(270)" text-anchor="middle" style="font-weight:bold;font-size:10px;stroke:none; fill:#434343"><tspan dy="14" x="-649">GePlan</tspan></text></g><rect x="0" y="149" width="1011" height="262" ry="0" rx="0" style="stroke:#000000; fill:#1CE2FC" /><g componentSequence="2"><text x="-280" y="7" transform="rotate(270)" text-anchor="middle" style="font-weight:bold;font-size:10px;stroke:none; fill:#434343"><tspan dy="14" x="-280">Responsável pelo projeto</tspan></text></g><rect x="0" y="410" width="1011" height="163" ry="0" rx="0" style="stroke:#000000; fill:#82B0B7" /><g componentSequence="40"><text x="-491" y="7" transform="rotate(270)" text-anchor="middle" style="font-weight:bold;font-size:10px;stroke:none; fill:#434343"><tspan dy="14" x="-491">Responsável pelo Objetivo ...</tspan></text></g><g sequence="5"><ellipse cx="77" cy="59" rx="17" ry="17" stroke-width="1" style="fill:url(#linearGradient66FF6696FF96B6FFB6_2143189980);" stroke="336633" /></g><g sequence="6"><rect x="100" y="180" width="106" height="84" ry="5" rx="5" style="fill:url(#linearGradientF8FBFEEDF5FCDEEDFAD4E7F8E2E5E9_1903790683);" stroke="191970" /></g><g componentSequence="6"><text x="153" y="195" text-anchor="middle" style="font-weight:bold;font-size:10px;stroke:none; fill:#333399"><tspan dy="14" x="153">Análise do</tspan><tspan dy="14" x="153">Responsável</tspan><tspan dy="14" x="153">pelo Projeto</tspan></text></g><g sequence="8"><polygon points=" 450 473 480 443 510 473 480 503 450 473" style="fill:url(#linearGradientFAFBFCFFFFCC_1967526060);" stroke="000000" /></g><g componentSequence="8"><text x="480" y="513" text-anchor="middle" style="font-weight:bold;font-size:10px;stroke:none; fill:#333399"><tspan dy="14" x="480">Aprovad</tspan><tspan dy="14" x="480">o?</tspan></text></g><g sequence="12"><rect x="310" y="590" width="106" height="84" ry="5" rx="5" style="fill:url(#linearGradientF8FBFEEDF5FCDEEDFAD4E7F8E2E5E9_809795680);" stroke="191970" /></g><g componentSequence="12"><text x="363" y="605" text-anchor="middle" style="font-weight:bold;font-size:10px;stroke:none; fill:#333399"><tspan dy="14" x="363">Análise do</tspan><tspan dy="14" x="363">Planejamento</tspan><tspan dy="14" x="363">Estratégico</tspan></text></g><g sequence="14"><polygon points=" 560 660 590 630 620 660 590 690 560 660" style="fill:url(#linearGradientFAFBFCFFFFCC_1017670959);" stroke="000000" /></g><g componentSequence="14"><text x="590" y="700" text-anchor="middle" style="font-weight:bold;font-size:10px;stroke:none; fill:#333399"><tspan dy="14" x="590">Validado</tspan><tspan dy="14" x="590">?</tspan></text></g><g sequence="16"><rect x="560" y="40" width="106" height="56" ry="5" rx="5" style="fill:url(#linearGradientF8FBFEEDF5FCDEEDFAD4E7F8E2E5E9_29234099);" stroke="191970" /></g><g componentSequence="16"><text x="613" y="57" text-anchor="middle" style="font-weight:bold;font-size:10px;stroke:none; fill:#333399"><tspan dy="14" x="613">Ajustes</tspan></text></g><g sequence="19"><rect x="90" y="764" width="106" height="70" ry="5" rx="5" style="fill:url(#linearGradientF8FBFEEDF5FCDEEDFAD4E7F8E2E5E9_1152950360);" stroke="191970" /></g><g componentSequence="19"><text x="143" y="779" text-anchor="middle" style="font-weight:bold;font-size:10px;stroke:none; fill:#333399"><tspan dy="14" x="143">Análise do</tspan><tspan dy="14" x="143">Diretor Adjunto</tspan></text></g><g sequence="21"><polygon points=" 310 778 340 748 370 778 340 808 310 778" style="fill:url(#linearGradientFAFBFCFFFFCC_1349222191);" stroke="000000" /></g><g componentSequence="21"><text x="340" y="818" text-anchor="middle" style="font-weight:bold;font-size:10px;stroke:none; fill:#333399"><tspan dy="14" x="340">Aprovad</tspan><tspan dy="14" x="340">o?</tspan></text></g><g sequence="29"><rect x="600" y="757" width="106" height="84" ry="5" rx="5" style="fill:url(#linearGradientF8FBFEEDF5FCDEEDFAD4E7F8E2E5E9_802529560);" stroke="191970" /></g><g componentSequence="29"><text x="653" y="772" text-anchor="middle" style="font-weight:bold;font-size:10px;stroke:none; fill:#333399"><tspan dy="14" x="653">Análise da</tspan><tspan dy="14" x="653">Diretora</tspan><tspan dy="14" x="653">Executiva</tspan></text></g><g sequence="31"><polygon points=" 790 778 820 748 850 778 820 808 790 778" style="fill:url(#linearGradientFAFBFCFFFFCC_1577520346);" stroke="000000" /></g><g componentSequence="31"><text x="820" y="818" text-anchor="middle" style="font-weight:bold;font-size:10px;stroke:none; fill:#333399"><tspan dy="14" x="820">Aprovad</tspan><tspan dy="14" x="820">o?</tspan></text></g><g sequence="41"><polygon points=" 193 336 223 306 253 336 223 366 193 336" style="fill:url(#linearGradientFAFBFCFFFFCC_1606208802);" stroke="000000" /></g><g componentSequence="41"><text x="223" y="376" text-anchor="middle" style="font-weight:bold;font-size:10px;stroke:none; fill:#333399"><tspan dy="14" x="223">Aprovad</tspan><tspan dy="14" x="223">o?</tspan></text></g><g sequence="43"><rect x="50" y="460" width="106" height="98" ry="5" rx="5" style="fill:url(#linearGradientF8FBFEEDF5FCDEEDFAD4E7F8E2E5E9_1411728381);" stroke="191970" /></g><g componentSequence="43"><text x="103" y="475" text-anchor="middle" style="font-weight:bold;font-size:10px;stroke:none; fill:#333399"><tspan dy="14" x="103">Análise do</tspan><tspan dy="14" x="103">Responsável</tspan><tspan dy="14" x="103">pelo Objetivo</tspan><tspan dy="14" x="103">Estratégico</tspan></text></g><g sequence="48"><ellipse cx="557" cy="847" rx="17" ry="17" stroke-width="3" style="fill:url(#linearGradientFF6666FF9696FFB6B6_1450894592);" stroke="993333" /></g><g sequence="50"><ellipse cx="957" cy="747" rx="17" ry="17" stroke-width="3" style="fill:url(#linearGradientFF6666FF9696FFB6B6_821908169);" stroke="993333" /></g><g sequence="52"><ellipse cx="957" cy="837" rx="17" ry="17" stroke-width="3" style="fill:url(#linearGradientFF6666FF9696FFB6B6_152128553);" stroke="993333" /></g><g componentSequence="7"><text x="149" y="100" style="font-size:10px;font-weight:none;stroke:none; fill:#333399" text-anchor="left" /></g><g componentSequence="13"><text x="484" y="611" style="font-size:10px;font-weight:none;stroke:none; fill:#333399" text-anchor="left"><tspan dy="14" x="484">Sim</tspan></text></g><g componentSequence="15"><text x="502" y="633" style="font-size:10px;font-weight:none;stroke:none; fill:#333399" text-anchor="left" /></g><g componentSequence="17"><text x="490" y="245" style="font-size:10px;font-weight:none;stroke:none; fill:#333399" text-anchor="left"><tspan dy="14" x="490">Necessário ajustar</tspan></text></g><g componentSequence="18"><text x="580" y="370" style="font-size:10px;font-weight:none;stroke:none; fill:#333399" text-anchor="left"><tspan dy="14" x="580">Necessário ajustar</tspan></text></g><g componentSequence="20"><text x="372" y="681" style="font-size:10px;font-weight:none;stroke:none; fill:#333399" text-anchor="left"><tspan dy="14" x="372">Sim</tspan></text></g><g componentSequence="22"><text x="263" y="799" style="font-size:10px;font-weight:none;stroke:none; fill:#333399" text-anchor="left" /></g><g componentSequence="25"><text x="700" y="590" style="font-size:10px;font-weight:none;stroke:none; fill:#333399" text-anchor="left"><tspan dy="14" x="700">Necessário ajustar</tspan></text></g><g componentSequence="26"><text x="325" y="68" style="font-size:10px;font-weight:none;stroke:none; fill:#333399" text-anchor="left" /></g><g componentSequence="30"><text x="495" y="799" style="font-size:10px;font-weight:none;stroke:none; fill:#333399" text-anchor="left"><tspan dy="14" x="495">Sim</tspan></text></g><g componentSequence="32"><text x="758" y="799" style="font-size:10px;font-weight:none;stroke:none; fill:#333399" text-anchor="left" /></g><g componentSequence="33"><text x="890" y="620" style="font-size:10px;font-weight:none;stroke:none; fill:#333399" text-anchor="left"><tspan dy="14" x="890">Necessário ajustar</tspan></text></g><g componentSequence="42"><text x="162" y="316" style="font-size:10px;font-weight:none;stroke:none; fill:#333399" text-anchor="left" /></g><g componentSequence="44"><text x="30" y="420" style="font-size:10px;font-weight:none;stroke:none; fill:#333399" text-anchor="left"><tspan dy="14" x="30">Sim e não sou responsável</tspan><tspan dy="14" x="30">pelo Objetivo Estratégico</tspan></text></g><g componentSequence="45"><text x="312" y="493" style="font-size:10px;font-weight:none;stroke:none; fill:#333399" text-anchor="left" /></g><g componentSequence="46"><text x="316" y="103" style="font-size:10px;font-weight:none;stroke:none; fill:#333399" text-anchor="left"><tspan dy="14" x="316">Necessário ajustar</tspan></text></g><g componentSequence="47"><text x="190" y="460" style="font-size:10px;font-weight:none;stroke:none; fill:#333399" text-anchor="left"><tspan dy="14" x="190">Sim e sou responsável pelo</tspan><tspan dy="14" x="190">Objetivo Estratégico</tspan></text></g><g componentSequence="49"><text x="460" y="847" style="font-size:10px;font-weight:none;stroke:none; fill:#333399" text-anchor="left"><tspan dy="14" x="460">Não</tspan></text></g><g componentSequence="51"><text x="905" y="771" style="font-size:10px;font-weight:none;stroke:none; fill:#333399" text-anchor="left"><tspan dy="14" x="905">Sim</tspan></text></g><g componentSequence="53"><text x="885" y="822" style="font-size:10px;font-weight:none;stroke:none; fill:#333399" text-anchor="left"><tspan dy="14" x="885">Não</tspan></text></g><path style="fill:none; stroke:#000000;stroke-width:1" d="M94.0 59.0 L135.0 60.0 L148.0 179.0" /><polygon style="fill:#000000; stroke:#000000;" points=" 152 169 148 179 142 170 147 171" /><path style="fill:none; stroke:#000000;stroke-width:1" d="M152.0 264.0 L152.0 323.0 L192.0 342.0" /><polygon style="fill:#000000; stroke:#000000;" points=" 185 333 192 342 181 342 185 339" /><path style="fill:none; stroke:#000000;stroke-width:1" d="M559.0 68.0 L184.0 68.0 L161.0 179.0" /><polygon style="fill:#000000; stroke:#000000;" points=" 168 170 161 179 158 168 163 171" /><path style="fill:none; stroke:#000000;stroke-width:1" d="M477.0 545.0 L474.0 618.0 L416.0 625.0" /><polygon style="fill:#000000; stroke:#000000;" points=" 427 629 416 625 425 619 424 624" /><path style="fill:none; stroke:#000000;stroke-width:1" d="M480.0 442.0 L480.0 151.0 L567.0 96.0" /><polygon style="fill:#000000; stroke:#000000;" points=" 556 97 567 96 561 106 560 100" /><path style="fill:none; stroke:#000000;stroke-width:1" d="M156.0 502.0 L230.0 493.0 L449.0 493.0" /><polygon style="fill:#000000; stroke:#000000;" points=" 439 488 449 493 439 498 441 493" /><path style="fill:none; stroke:#000000;stroke-width:1" d="M416.0 632.0 L519.0 633.0 L559.0 660.0" /><polygon style="fill:#000000; stroke:#000000;" points=" 554 650 559 660 548 659 552 656" /><path style="fill:none; stroke:#000000;stroke-width:1" d="M253.0 357.0 L362.0 357.0 L362.0 589.0" /><polygon style="fill:#000000; stroke:#000000;" points=" 367 579 362 589 357 579 362 581" /><path style="fill:none; stroke:#000000;stroke-width:1" d="M608.0 629.0 L699.0 373.0 L621.0 96.0" /><polygon style="fill:#000000; stroke:#000000;" points=" 619 107 621 96 629 104 623 104" /><path style="fill:none; stroke:#000000;stroke-width:1" d="M559.0 681.0 L304.0 681.0 L191.0 763.0" /><polygon style="fill:#000000; stroke:#000000;" points=" 202 761 191 763 196 753 197 758" /><path style="fill:none; stroke:#000000;stroke-width:1" d="M370.0 791.0 L811.0 684.0 L811.0 214.0 L651.0 96.0" /><polygon style="fill:#000000; stroke:#000000;" points=" 656 106 651 96 662 98 657 101" /><path style="fill:none; stroke:#000000;stroke-width:1" d="M844.0 747.0 L881.0 667.0 L881.0 68.0 L666.0 68.0" /><polygon style="fill:#000000; stroke:#000000;" points=" 676 73 666 68 676 63 674 68" /><path style="fill:none; stroke:#000000;stroke-width:1" d="M228.0 305.0 L249.0 109.0 L559.0 74.0" /><polygon style="fill:#000000; stroke:#000000;" points=" 549 70 559 74 550 80 551 75" /><path style="fill:none; stroke:#000000;stroke-width:1" d="M196.0 799.0 L309.0 799.0" /><polygon style="fill:#000000; stroke:#000000;" points=" 299 794 309 799 299 804 301 799" /><path style="fill:none; stroke:#000000;stroke-width:1" d="M370.0 799.0 L599.0 799.0" /><polygon style="fill:#000000; stroke:#000000;" points=" 589 794 599 799 589 804 591 799" /><path style="fill:none; stroke:#000000;stroke-width:1" d="M370.0 818.0 L416.0 847.0 L539.0 847.0" /><polygon style="fill:#000000; stroke:#000000;" points=" 529 842 539 847 529 852 531 847" /><path style="fill:none; stroke:#000000;stroke-width:1" d="M706.0 799.0 L789.0 799.0" /><polygon style="fill:#000000; stroke:#000000;" points=" 779 794 789 799 779 804 781 799" /><path style="fill:none; stroke:#000000;stroke-width:1" d="M850.0 787.0 L941.0 753.0" /><polygon style="fill:#000000; stroke:#000000;" points=" 930 752 941 753 933 761 934 756" /><path style="fill:none; stroke:#000000;stroke-width:1" d="M850.0 807.0 L940.0 833.0" /><polygon style="fill:#000000; stroke:#000000;" points=" 932 825 940 833 929 835 932 831" /><path style="fill:none; stroke:#000000;stroke-width:1" d="M192.0 357.0 L105.0 357.0 L103.0 459.0" /><polygon style="fill:#000000; stroke:#000000;" points=" 108 449 103 459 98 449 103 451" /><defs><linearGradient xmlns:xlink="http://www.w3.org/1999/xlink" xlink:href="#linearGradient66FF6696FF96B6FFB6" id="linearGradient66FF6696FF96B6FFB6_2143189980" x1="0" y1="42.0" x2="0" y2="77.0" gradientUnits="userSpaceOnUse" xlink:type="simple" xlink:actuate="onLoad" xlink:show="other" /><linearGradient id="linearGradient66FF6696FF96B6FFB6"><stop style="stop-color:#66FF66;stop-opacity:1;" offset="0.0" id="stop66FF66" /><stop style="stop-color:#96FF96;stop-opacity:1;" offset="0.5" id="stop96FF96" /><stop style="stop-color:#B6FFB6;stop-opacity:1;" offset="1.0" id="stopB6FFB6" /></linearGradient><linearGradient xmlns:xlink="http://www.w3.org/1999/xlink" xlink:href="#linearGradientF8FBFEEDF5FCDEEDFAD4E7F8E2E5E9" id="linearGradientF8FBFEEDF5FCDEEDFAD4E7F8E2E5E9_1903790683" x1="0" y1="180.0" x2="0" y2="286.0" gradientUnits="userSpaceOnUse" xlink:type="simple" xlink:actuate="onLoad" xlink:show="other" /><linearGradient id="linearGradientF8FBFEEDF5FCDEEDFAD4E7F8E2E5E9"><stop style="stop-color:#F8FBFE;stop-opacity:1;" offset="0.0" id="stopF8FBFE" /><stop style="stop-color:#EDF5FC;stop-opacity:1;" offset="0.25" id="stopEDF5FC" /><stop style="stop-color:#DEEDFA;stop-opacity:1;" offset="0.5" id="stopDEEDFA" /><stop style="stop-color:#D4E7F8;stop-opacity:1;" offset="0.75" id="stopD4E7F8" /><stop style="stop-color:#E2E5E9;stop-opacity:1;" offset="1.0" id="stopE2E5E9" /></linearGradient><linearGradient xmlns:xlink="http://www.w3.org/1999/xlink" xlink:href="#linearGradientFAFBFCFFFFCC" id="linearGradientFAFBFCFFFFCC_1967526060" x1="0" y1="443.0" x2="0" y2="503.0" gradientUnits="userSpaceOnUse" xlink:type="simple" xlink:actuate="onLoad" xlink:show="other" /><linearGradient id="linearGradientFAFBFCFFFFCC"><stop style="stop-color:#FAFBFC;stop-opacity:1;" offset="0.0" id="stopFAFBFC" /><stop style="stop-color:#FFFFCC;stop-opacity:1;" offset="1.0" id="stopFFFFCC" /></linearGradient><linearGradient xmlns:xlink="http://www.w3.org/1999/xlink" xlink:href="#linearGradientF8FBFEEDF5FCDEEDFAD4E7F8E2E5E9" id="linearGradientF8FBFEEDF5FCDEEDFAD4E7F8E2E5E9_809795680" x1="0" y1="590.0" x2="0" y2="696.0" gradientUnits="userSpaceOnUse" xlink:type="simple" xlink:actuate="onLoad" xlink:show="other" /><linearGradient xmlns:xlink="http://www.w3.org/1999/xlink" xlink:href="#linearGradientFAFBFCFFFFCC" id="linearGradientFAFBFCFFFFCC_1017670959" x1="0" y1="630.0" x2="0" y2="690.0" gradientUnits="userSpaceOnUse" xlink:type="simple" xlink:actuate="onLoad" xlink:show="other" /><linearGradient xmlns:xlink="http://www.w3.org/1999/xlink" xlink:href="#linearGradientF8FBFEEDF5FCDEEDFAD4E7F8E2E5E9" id="linearGradientF8FBFEEDF5FCDEEDFAD4E7F8E2E5E9_29234099" x1="0" y1="40.0" x2="0" y2="146.0" gradientUnits="userSpaceOnUse" xlink:type="simple" xlink:actuate="onLoad" xlink:show="other" /><linearGradient xmlns:xlink="http://www.w3.org/1999/xlink" xlink:href="#linearGradientF8FBFEEDF5FCDEEDFAD4E7F8E2E5E9" id="linearGradientF8FBFEEDF5FCDEEDFAD4E7F8E2E5E9_1152950360" x1="0" y1="764.0" x2="0" y2="870.0" gradientUnits="userSpaceOnUse" xlink:type="simple" xlink:actuate="onLoad" xlink:show="other" /><linearGradient xmlns:xlink="http://www.w3.org/1999/xlink" xlink:href="#linearGradientFAFBFCFFFFCC" id="linearGradientFAFBFCFFFFCC_1349222191" x1="0" y1="748.0" x2="0" y2="808.0" gradientUnits="userSpaceOnUse" xlink:type="simple" xlink:actuate="onLoad" xlink:show="other" /><linearGradient xmlns:xlink="http://www.w3.org/1999/xlink" xlink:href="#linearGradientF8FBFEEDF5FCDEEDFAD4E7F8E2E5E9" id="linearGradientF8FBFEEDF5FCDEEDFAD4E7F8E2E5E9_802529560" x1="0" y1="757.0" x2="0" y2="863.0" gradientUnits="userSpaceOnUse" xlink:type="simple" xlink:actuate="onLoad" xlink:show="other" /><linearGradient xmlns:xlink="http://www.w3.org/1999/xlink" xlink:href="#linearGradientFAFBFCFFFFCC" id="linearGradientFAFBFCFFFFCC_1577520346" x1="0" y1="748.0" x2="0" y2="808.0" gradientUnits="userSpaceOnUse" xlink:type="simple" xlink:actuate="onLoad" xlink:show="other" /><linearGradient xmlns:xlink="http://www.w3.org/1999/xlink" xlink:href="#linearGradientFAFBFCFFFFCC" id="linearGradientFAFBFCFFFFCC_1606208802" x1="0" y1="306.0" x2="0" y2="366.0" gradientUnits="userSpaceOnUse" xlink:type="simple" xlink:actuate="onLoad" xlink:show="other" /><linearGradient xmlns:xlink="http://www.w3.org/1999/xlink" xlink:href="#linearGradientF8FBFEEDF5FCDEEDFAD4E7F8E2E5E9" id="linearGradientF8FBFEEDF5FCDEEDFAD4E7F8E2E5E9_1411728381" x1="0" y1="460.0" x2="0" y2="566.0" gradientUnits="userSpaceOnUse" xlink:type="simple" xlink:actuate="onLoad" xlink:show="other" /><linearGradient xmlns:xlink="http://www.w3.org/1999/xlink" xlink:href="#linearGradientFF6666FF9696FFB6B6" id="linearGradientFF6666FF9696FFB6B6_1450894592" x1="0" y1="830.0" x2="0" y2="865.0" gradientUnits="userSpaceOnUse" xlink:type="simple" xlink:actuate="onLoad" xlink:show="other" /><linearGradient id="linearGradientFF6666FF9696FFB6B6"><stop style="stop-color:#FF6666;stop-opacity:1;" offset="0.0" id="stopFF6666" /><stop style="stop-color:#FF9696;stop-opacity:1;" offset="0.5" id="stopFF9696" /><stop style="stop-color:#FFB6B6;stop-opacity:1;" offset="1.0" id="stopFFB6B6" /></linearGradient><linearGradient xmlns:xlink="http://www.w3.org/1999/xlink" xlink:href="#linearGradientFF6666FF9696FFB6B6" id="linearGradientFF6666FF9696FFB6B6_821908169" x1="0" y1="730.0" x2="0" y2="765.0" gradientUnits="userSpaceOnUse" xlink:type="simple" xlink:actuate="onLoad" xlink:show="other" /><linearGradient xmlns:xlink="http://www.w3.org/1999/xlink" xlink:href="#linearGradientFF6666FF9696FFB6B6" id="linearGradientFF6666FF9696FFB6B6_152128553" x1="0" y1="820.0" x2="0" y2="855.0" gradientUnits="userSpaceOnUse" xlink:type="simple" xlink:actuate="onLoad" xlink:show="other" /></defs></svg>
